PathFileType	4	(X/Y/Z)	./resultDataOpenSim/trcMotMarkerGrf/sub10/qtm-15-03.trc
DataRate	CameraRate	NumFrames	NumMarkers	Units	OrigDataRate	OrigDataStartFrame	OrigNumFrames
250.000000	250.000000	11	24	m	250.000000	183	487
Frame#	Time	L.Toe.Tip			R.Toe.Tip			L.Ankle.Lat			R.Ankle.Lat			L.Ankle.Med			R.Ankle.Med			L.Heel			R.Heel			L.Knee.Lat			R.Knee.Lat			L.Knee.Med			R.Knee.Med			L.Thigh.Upper			R.Thigh.Upper			L.ASIS			R.ASIS			V.Sacral			L.Acromium			R.Acromium			C7			L.Elbow			R.Elbow			L.Wrist.Lat			R.Wrist.Lat
		X1	Y1	Z1	X2	Y2	Z2	X3	Y3	Z3	X4	Y4	Z4	X5	Y5	Z5	X6	Y6	Z6	X7	Y7	Z7	X8	Y8	Z8	X9	Y9	Z9	X10	Y10	Z10	X11	Y11	Z11	X12	Y12	Z12	X13	Y13	Z13	X14	Y14	Z14	X15	Y15	Z15	X16	Y16	Z16	X17	Y17	Z17	X18	Y18	Z18	X19	Y19	Z19	X20	Y20	Z20	X21	Y21	Z21	X22	Y22	Z22	X23	Y23	Z23	X24	Y24	Z24

183	0.728	-0.013104629	-0.054954039	-0.077613773	-0.61425282	0.0620913	-0.013461481	-0.12828343	-0.017055195	-0.16045364	-0.64457028	0.20557412	0.026754069	-0.14327612	0.011805704	-0.081032601	-0.59361694	0.18851707	-0.042140788	-0.20019044	-0.04022382	-0.13936159	-0.6704949	0.23700626	-0.029529958	-0.11416343	0.374865	-0.18591813	-0.31873966	0.39349636	0.097907341	-0.12711825	0.35332358	-0.063995471	-0.24777355	0.36017348	-0.010578047	-0.15384981	0.77685036	-0.24180129	-0.29059576	0.79735979	0.11561291	-0.12758552	0.89166376	-0.16247254	-0.19254928	0.89534591	0.063753483	-0.34488088	0.89434722	-0.10957286	-0.21765127	1.3559295	-0.23868314	-0.25717198	1.3545738	0.069393063	-0.31451555	1.3752189	-0.096106852	-0.38034015	1.0694265	-0.31365561	-0.26774646	1.0027107	0.13609635	-0.33899187	0.8322002	-0.35271474	-0.037538236	0.90211753	0.17284138
184	0.732	-0.014370302	-0.055514526	-0.077061277	-0.6043033	0.065300543	-0.0072344729	-0.13015528	-0.02037093	-0.1604711	-0.63397309	0.2102411	0.026648163	-0.14569938	0.0088477691	-0.080995893	-0.58230479	0.1909805	-0.04124515	-0.20171406	-0.04354291	-0.14009873	-0.65872668	0.24069587	-0.031223199	-0.11125412	0.37053694	-0.18581618	-0.30660697	0.39122793	0.10070605	-0.12456421	0.34929665	-0.06451143	-0.23440508	0.35695548	-0.0075380625	-0.14637341	0.77345464	-0.24199578	-0.28250858	0.79541442	0.11553628	-0.12097495	0.88858828	-0.16160555	-0.18530595	0.89348253	0.06326458	-0.33548226	0.89254254	-0.11048321	-0.20970926	1.3536976	-0.23935027	-0.25221944	1.352337	0.068285406	-0.30772781	1.3722363	-0.097550875	-0.37123146	1.0667534	-0.31480795	-0.26301899	1.0005851	0.13504605	-0.32727101	0.82985647	-0.35557523	-0.034276839	0.8992373	0.17620841
185	0.736	-0.015269756	-0.056093512	-0.076265181	-0.59376294	0.068500268	-0.00083315669	-0.13146179	-0.023301075	-0.16008886	-0.62325868	0.21451041	0.026282383	-0.14789845	0.0061141714	-0.080645529	-0.57054126	0.19309098	-0.040322123	-0.20275648	-0.046763169	-0.14087453	-0.64700835	0.24407252	-0.032904963	-0.10812319	0.36622576	-0.18555337	-0.29435062	0.38899236	0.10351591	-0.12198243	0.34532911	-0.065083933	-0.22118655	0.35392239	-0.0046372199	-0.13900998	0.76982568	-0.24230987	-0.27469398	0.79335265	0.11570486	-0.11416506	0.88523681	-0.16100859	-0.17809496	0.89139877	0.062762622	-0.32701246	0.89094938	-0.11143823	-0.20166141	1.3512925	-0.2400803	-0.2471974	1.3499525	0.067283226	-0.30091619	1.3691017	-0.09901076	-0.36200533	1.0638546	-0.31607439	-0.25825344	0.99829445	0.13421356	-0.3154773	0.82737807	-0.35854426	-0.031047258	0.89619158	0.17982996
186	0.74	-0.015599938	-0.056673858	-0.07547751	-0.58257454	0.071718397	0.0056097645	-0.13223339	-0.025865964	-0.15928639	-0.61225065	0.2183637	0.025802366	-0.14958879	0.0034958596	-0.079824337	-0.55846188	0.1948826	-0.039431214	-0.20344448	-0.049797041	-0.14128676	-0.63542545	0.24711964	-0.034340598	-0.10481318	0.36207791	-0.18513601	-0.28191883	0.38679943	0.10633907	-0.11970398	0.34162162	-0.065505157	-0.208115	0.35113582	-0.0019580089	-0.13175607	0.76595898	-0.24275266	-0.26711421	0.79116688	0.11606634	-0.10705561	0.88157531	-0.16067385	-0.17091489	0.88910139	0.062220979	-0.31915242	0.88970765	-0.11238073	-0.19351651	1.3487319	-0.24087307	-0.24211573	1.3474325	0.066401236	-0.29410381	1.3658464	-0.10047784	-0.35264313	1.0607197	-0.31751603	-0.2536357	0.99590991	0.13377582	-0.30429845	0.82465362	-0.36181139	-0.02789719	0.89302448	0.18371305
187	0.744	-0.015545116	-0.057202034	-0.074784686	-0.57069586	0.074985922	0.012018655	-0.13267323	-0.028116603	-0.15808893	-0.60054268	0.22192249	0.025483679	-0.15072697	0.00098909345	-0.078486176	-0.54613591	0.19643914	-0.038613722	-0.20400673	-0.052490665	-0.14102251	-0.62372289	0.24969996	-0.035429933	-0.10150035	0.35827389	-0.18457772	-0.26933425	0.38466569	0.1091307	-0.11800431	0.3383693	-0.065548038	-0.19508324	0.34863844	0.0004944549	-0.12459799	0.76184482	-0.24332175	-0.25968095	0.78885966	0.11650338	-0.099768472	0.87763976	-0.16054201	-0.16379286	0.88660294	0.061633225	-0.31229667	0.88895788	-0.11277449	-0.18528391	1.3460421	-0.24172596	-0.23696006	1.3447978	0.065649356	-0.28732762	1.362512	-0.10195487	-0.34318948	1.0573555	-0.31902824	-0.24918933	0.99348546	0.13373818	-0.29451602	0.82139653	-0.36590518	-0.024866595	0.88977765	0.18785114
188	0.748	-0.015441593	-0.057637141	-0.074163761	-0.55812219	0.078345899	0.018339584	-0.13301117	-0.030053769	-0.15658157	-0.58785959	0.22533442	0.025556647	-0.15156825	-0.0013589098	-0.076737592	-0.53357061	0.19784768	-0.037832063	-0.20463378	-0.054809665	-0.14006154	-0.61160831	0.2517001	-0.036121038	-0.098418342	0.35497378	-0.18390096	-0.25665447	0.38260922	0.11183315	-0.11690365	0.33566647	-0.065133913	-0.18195933	0.34643888	0.0027615012	-0.11751303	0.7574919	-0.24399523	-0.252185	0.78643106	0.11677154	-0.092543534	0.87348834	-0.16057918	-0.15676383	0.88392073	0.061000648	-0.3070102	0.8886806	-0.11216836	-0.17698144	1.343256	-0.24261935	-0.23168237	1.3420789	0.06502848	-0.28059347	1.359139	-0.10350285	-0.33366757	1.0537836	-0.32051629	-0.24479802	0.99103708	0.13395905	-0.28607701	0.81752593	-0.37099152	-0.021973389	0.88647831	0.19222416
189	0.752	-0.01548289	-0.057967812	-0.073580621	-0.54485159	0.081862381	0.024524444	-0.13338879	-0.031642434	-0.15491426	-0.57436276	0.2286254	0.026043632	-0.1524341	-0.0035010532	-0.074776749	-0.52075792	0.19916659	-0.037001247	-0.20539528	-0.056767195	-0.13866496	-0.59899875	0.25315354	-0.036376868	-0.095704809	0.35225661	-0.18310336	-0.24386688	0.3806449	0.11441215	-0.11622625	0.33354133	-0.06437209	-0.16865299	0.34456252	0.0048569862	-0.11050088	0.75297145	-0.24474103	-0.24436471	0.78388505	0.1165844	-0.085570494	0.86917421	-0.16077721	-0.14985487	0.88107493	0.060317285	-0.3026562	0.88832349	-0.11114539	-0.16863051	1.3404168	-0.24350972	-0.22623152	1.3393112	0.064531055	-0.27385941	1.3557688	-0.10522458	-0.3240145	1.0500316	-0.32206841	-0.24038867	0.98857436	0.1343372	-0.2758953	0.81404531	-0.37525159	-0.01922467	0.88314998	0.19680987
190	0.756	-0.015660543	-0.058208306	-0.073019706	-0.53088019	0.085574412	0.030511324	-0.13381526	-0.032868192	-0.15325681	-0.56052635	0.23168895	0.026782415	-0.15343996	-0.005399974	-0.07279725	-0.50768291	0.20043742	-0.036056527	-0.20623467	-0.058334338	-0.13718698	-0.58599496	0.25420152	-0.03622502	-0.093304282	0.35008725	-0.18214139	-0.23086354	0.37880058	0.11685382	-0.11577251	0.33201783	-0.063442329	-0.15511022	0.34308411	0.0067636778	-0.10363735	0.74847929	-0.24553061	-0.23618784	0.78122654	0.11593745	-0.078886917	0.86476373	-0.16112127	-0.14308617	0.87809177	0.059572199	-0.29753937	0.88704127	-0.11093294	-0.16025366	1.3375824	-0.24433991	-0.22057246	1.3365417	0.064141631	-0.26707899	1.3524553	-0.10712878	-0.31414264	1.0461351	-0.3238496	-0.2359719	0.98611675	0.1348836	-0.25565464	0.81386433	-0.37336873	-0.016629036	0.8798201	0.2016051
191	0.76	-0.01589743	-0.058380687	-0.072476716	-0.5162478	0.08943075	0.036203216	-0.13420263	-0.033741241	-0.15173617	-0.54669486	0.23442016	0.027610801	-0.15446753	-0.0070074477	-0.070944566	-0.49432081	0.20170335	-0.034987198	-0.20704398	-0.059483567	-0.13589168	-0.57275394	0.25501609	-0.035763527	-0.090997529	0.34835232	-0.18096868	-0.21750882	0.37713254	0.11915229	-0.11535427	0.33108568	-0.062466038	-0.14134946	0.34208309	0.0084481195	-0.097113488	0.74435542	-0.24634853	-0.2279824	0.77843984	0.11523961	-0.072436651	0.8603397	-0.16158609	-0.1364766	0.87500399	0.058761273	-0.29084353	0.88458464	-0.11184601	-0.1518783	1.3348176	-0.24506208	-0.21467176	1.3338354	0.06384019	-0.2602543	1.3492817	-0.1090255	-0.30404291	1.042142	-0.32588741	-0.23157224	0.98369268	0.13565654	-0.21505477	0.82065869	-0.35864108	-0.01420054	0.87652155	0.20663952
192	0.764	-0.016142441	-0.05850017	-0.071956577	-0.50103201	0.093304623	0.041498637	-0.13445424	-0.034286401	-0.15041603	-0.53284855	0.23682617	0.028509123	-0.15534384	-0.0082561202	-0.069323987	-0.4806428	0.20300703	-0.033815566	-0.20773479	-0.060235295	-0.13488912	-0.55934385	0.25575511	-0.035104038	-0.088506147	0.34694715	-0.17958083	-0.20369379	0.37571071	0.12130027	-0.11471111	0.33067128	-0.061431472	-0.12742312	0.34159187	0.0098759714	-0.09117904	0.7409911	-0.2471881	-0.22012101	0.77549067	0.11490086	-0.066184247	0.85598075	-0.16215447	-0.13004113	0.87184124	0.057891561	-0.28339436	0.88150143	-0.11303423	-0.14353087	1.3321747	-0.24565703	-0.20848711	1.3312591	0.063614001	-0.25338256	1.3463722	-0.11067443	-0.29379094	1.0381074	-0.32804025	-0.22720221	0.98133874	0.13669426	-0.1542301	0.83450422	-0.33103545	-0.011964534	0.87329629	0.21195578
193	0.768	-0.016367214	-0.058577301	-0.071469034	-0.4852938	0.097073755	0.046349519	-0.13451896	-0.034551522	-0.14932302	-0.51877409	0.23899614	0.029570518	-0.15598739	-0.0090959394	-0.068015958	-0.46662563	0.2043785	-0.032555978	-0.2082319	-0.060626662	-0.13421745	-0.54569015	0.25651858	-0.034302199	-0.085568611	0.34583368	-0.17801016	-0.18934442	0.37459114	0.12327181	-0.11353987	0.33067396	-0.0602358	-0.11330447	0.3415945	0.011041547	-0.085958314	0.73863127	-0.24803295	-0.21264574	0.77237366	0.1149009	-0.060126519	0.85175718	-0.16281395	-0.12378187	0.86862071	0.056977755	-0.27632996	0.87839395	-0.11379711	-0.13522866	1.3296808	-0.24613649	-0.2019968	1.3288514	0.063462882	-0.24637004	1.3438801	-0.11200068	-0.28343873	1.0340786	-0.33018438	-0.22286966	0.97909175	0.13799751	-0.091369719	0.84917336	-0.30214257	-0.0099706385	0.87019343	0.21757967
